<svg width="16" height="16" viewBox="0 0 16 16" fill="none" xmlns="http://www.w3.org/2000/svg">
  <!-- Background -->
  <rect width="16" height="16" rx="3" fill="#1a5031"/>
  <!-- White circle with "S" -->
  <circle cx="8" cy="8" r="5" fill="white"/>
  <!-- "S" letter -->
  <path d="M6 5.5C6 5 6.5 4.5 7 4.5H8.5C9 4.5 9.5 5 9.5 5.5C9.5 6 9 6 8.5 6H8C7.5 6 7 6.5 7 7C7 7.5 7.5 8 8 8H8.5C9.5 8 10 8.5 10 9V9.5C10 10.5 9.5 11 8.5 11H7C6.5 11 6 10.5 6 10C6 9.5 6.5 9.5 7 9.5H8C8.5 9.5 9 9 9 8.5C9 8 8.5 7.5 8 7.5H7.5C6.5 7.5 6 7 6 6.5V5.5Z" fill="#1a5031"/>
  <!-- Gold corners -->
  <rect x="1" y="1" width="1" height="1" fill="#d4851c"/>
  <rect x="14" y="1" width="1" height="1" fill="#d4851c"/>
  <rect x="1" y="14" width="1" height="1" fill="#d4851c"/>
  <rect x="14" y="14" width="1" height="1" fill="#d4851c"/>
</svg>