<svg width="32" height="32" viewBox="0 0 32 32" fill="none" xmlns="http://www.w3.org/2000/svg">
  <!-- Background with Simandou green -->
  <rect width="32" height="32" rx="6" fill="hsl(148, 84%, 20%)"/>
  
  <!-- Mining/Industrial symbol with "S" for Simandou -->
  <g transform="translate(4, 4)">
    <!-- Background circle for "S" -->
    <circle cx="12" cy="12" r="10" fill="hsl(0, 0%, 98%)" stroke="hsl(42, 64%, 52%)" stroke-width="1"/>
    
    <!-- Letter "S" for Simandou -->
    <path d="M8 8C8 6.5 9.5 5 11 5H13C14.5 5 16 6.5 16 8C16 9 15.5 9.5 15 9.5H14C13.5 9.5 13 9 13 8.5C13 8 12.5 7.5 12 7.5H11C10.5 7.5 10 8 10 8.5C10 9 10.5 9.5 11 9.5H13C15.5 9.5 16 11.5 16 12.5V13C16 15.5 14.5 17 13 17H11C9.5 17 8 15.5 8 13C8 12 8.5 11.5 9 11.5H10C10.5 11.5 11 12 11 12.5C11 13 11.5 13.5 12 13.5H13C13.5 13.5 14 13 14 12.5C14 12 13.5 11.5 13 11.5H11C8.5 11.5 8 9.5 8 8.5V8Z" 
          fill="hsl(148, 84%, 20%)" stroke="hsl(42, 64%, 52%)" stroke-width="0.2"/>
    
    <!-- Mining industry indicators - small geometric shapes -->
    <rect x="2" y="2" width="2" height="2" rx="0.5" fill="hsl(42, 64%, 52%)" opacity="0.8"/>
    <rect x="20" y="2" width="2" height="2" rx="0.5" fill="hsl(42, 64%, 52%)" opacity="0.8"/>
    <rect x="2" y="20" width="2" height="2" rx="0.5" fill="hsl(42, 64%, 52%)" opacity="0.8"/>
    <rect x="20" y="20" width="2" height="2" rx="0.5" fill="hsl(42, 64%, 52%)" opacity="0.8"/>
  </g>
</svg>